<svg width="1058" height="785" viewBox="0 0 1058 785" fill="none" xmlns="http://www.w3.org/2000/svg">
<g id="undraw_Ride_a_bicycle_2yok 1" clip-path="url(#clip0)">
<path id="Vector" opacity="0.1" d="M222.802 134.432C217.322 141.082 215.212 150.432 212.852 159.222C193.852 230.062 147.032 287.042 93.7121 327.742C71.1321 344.982 43.6421 368.102 48.5821 399.012C51.2421 415.612 62.9121 427.832 71.5821 441.352C89.7721 469.662 95.6721 508.142 87.0021 542.032C77.1421 580.592 49.5821 616.572 58.1121 655.562C63.3721 679.562 81.2321 696.642 98.4021 711.322C125.189 734.209 152.829 755.649 181.322 775.642C200.422 789.042 220.742 802.082 243.002 803.782C262.602 805.282 281.802 797.832 300.412 790.482C316.672 784.052 333.342 777.362 346.472 764.482C355.042 756.072 361.872 745.222 371.392 738.342C393.752 722.182 422.472 732.422 448.112 739.342C508.612 755.582 573.362 749.652 630.932 722.602C719.242 681.102 786.552 593.952 872.932 547.192C910.072 527.082 950.472 514.602 984.862 488.702C1004.24 473.956 1020.89 455.938 1034.06 435.462C1060.06 395.352 1074.12 344.212 1070.06 294.152C1066 244.092 1043.25 195.852 1007.52 167.592C969.272 137.342 920.962 131.692 877.442 113.532C832.502 94.7722 792.522 62.5322 748.012 42.4022C711.996 26.1588 672.8 18.185 633.3 19.0658C593.8 19.9466 554.998 29.6596 519.742 47.4922C471.302 71.9922 422.202 129.152 368.252 133.492C329.812 136.492 252.822 98.0122 222.802 134.432Z" fill="#F9A826"/>
<path id="Vector_2" d="M2.05997 606.72C5.44997 608.57 8.39998 609.72 8.64998 609.21C8.89998 608.7 6.36997 606.86 2.97997 605.02C-0.410027 603.18 0.929975 604.52 0.669975 605.02C0.409975 605.52 -1.33003 604.87 2.05997 606.72Z" fill="#FFD037"/>
<g id="rightwheel">
<path id="Vector_3" d="M676.33 498.61C665.717 498.598 655.15 500.024 644.92 502.85C639.644 504.305 634.477 506.133 629.46 508.32C602.73 519.907 581.247 540.997 569.167 567.508C557.087 594.019 555.269 624.069 564.065 651.843C572.86 679.618 591.644 703.143 616.782 717.869C641.921 732.594 671.627 737.473 700.155 731.562C728.682 725.65 754.004 709.369 771.221 685.867C788.438 662.365 796.327 633.312 793.362 604.33C790.396 575.348 776.787 548.495 755.168 528.966C733.548 509.438 705.454 498.622 676.32 498.61H676.33ZM675.93 704.7C655.649 704.692 635.981 697.746 620.192 685.017C604.404 672.288 593.445 654.541 589.135 634.723C584.825 614.905 587.424 594.209 596.501 576.073C605.577 557.936 620.584 543.45 639.03 535.02C643.722 532.872 648.594 531.142 653.59 529.85C665.802 526.68 678.549 526.147 690.984 528.287C703.418 530.427 715.253 535.191 725.703 542.261C736.153 549.332 744.977 558.547 751.588 569.293C758.199 580.039 762.446 592.069 764.046 604.585C765.646 617.1 764.562 629.812 760.866 641.875C757.17 653.939 750.948 665.077 742.613 674.548C734.277 684.02 724.02 691.608 712.524 696.806C701.028 702.005 688.557 704.696 675.94 704.7H675.93Z" fill="#535461"/>
<path id="Vector_4" d="M681.42 717.39L675.16 619.49L675.03 619.28L668.71 621.48L639.62 706.29L593.37 673.49L667.06 620.08L667.13 619.87L667.55 619.72L672.3 616.27L595.06 572.96L576.13 593.76L579.13 613.26L667.93 614.84V616.84L577.45 615.22L574.05 593.11L599.94 564.66L638.66 519.49L639.35 521.36L647.55 512.36L678.09 517.83V516.62L680.09 516.68V518.19L725.45 526.31L683.12 610.96L676.95 615.43V615.93V616.49L774.76 582.41L763.15 673.62L680.15 620.75L677.23 619.11L726.17 698L681.42 717.39ZM677.42 623.05L683.27 714.43L723.32 697.05L677.42 623.05ZM596.85 673.49L638.64 703.12L665.98 623.38L596.85 673.49ZM679.17 617.83L681.26 619L761.61 670.2L772.41 585.33L679.17 617.83ZM672.07 610.63L674.58 614.68L675.02 614.36L678.02 519.83L648.28 514.49L640.12 523.49L672.07 610.63ZM596.68 571.58L671.52 613.58L670.22 611.45L638.64 525.18L601.44 566.06L596.68 571.58ZM680.05 520.19L677.05 612.88L681.57 609.6L722.48 527.78L680.05 520.19Z" fill="#535461"/>
</g>
<g id="leftwheel">
<path id="Vector_5" d="M255.23 716.99L248.96 619.05L248.83 618.84L242.51 621.04L213.43 705.89L167.18 673.1L240.85 619.69L240.92 619.48L241.34 619.33L246.09 615.88L168.85 572.57L149.93 593.37L152.93 612.87L241.75 614.49V616.49L151.27 614.87L147.85 592.73L173.75 564.27L212.5 519.07L213.19 520.94L221.39 511.94L251.85 517.4V516.19L253.85 516.25V517.76L299.21 525.88L256.92 610.49L250.75 614.96V615.46V616.02L348.55 581.94L336.94 673.15L253.94 620.28L251.02 618.64L299.96 697.52L255.23 716.99ZM251.23 622.65L257.08 714.03L297.13 696.65L251.23 622.65ZM170.65 673.08L212.44 702.71L239.78 622.97L170.65 673.08ZM252.97 617.42L255.06 618.59L335.41 669.79L346.21 584.92L252.97 617.42ZM245.87 610.22L248.38 614.27L248.82 613.95L251.82 519.42L222.08 514.1L213.92 523.1L245.87 610.22ZM170.45 571.16L245.29 613.16L243.99 611.03L212.41 524.76L175.22 565.63L170.45 571.16ZM253.85 519.77L250.85 612.49L255.37 609.21L296.28 527.39L253.85 519.77Z" fill="#535461"/>
<path id="Vector_6" d="M364.92 589.95C360.909 572.131 352.79 555.495 341.21 541.37C336.911 536.121 332.171 531.25 327.04 526.81C307.314 509.779 282.491 499.779 256.467 498.381C230.443 496.983 204.692 504.265 183.254 519.085C161.816 533.904 145.906 555.422 138.02 580.262C130.134 605.102 130.719 631.857 139.683 656.328C148.647 680.799 165.482 701.601 187.547 715.47C209.612 729.339 235.657 735.488 261.595 732.954C287.533 730.42 311.895 719.345 330.858 701.468C349.822 683.591 362.312 659.923 366.37 634.18C367.314 628.119 367.789 621.994 367.79 615.86C367.797 607.144 366.834 598.454 364.92 589.95ZM249.73 704.3C231.498 704.281 213.714 698.647 198.797 688.164C183.879 677.682 172.552 662.859 166.356 645.712C160.16 628.565 159.395 609.926 164.165 592.329C168.935 574.732 179.009 559.031 193.018 547.361C207.026 535.692 224.288 528.619 242.457 527.106C260.627 525.593 278.821 529.712 294.567 538.904C310.312 548.096 322.845 561.914 330.46 578.48C338.076 595.045 340.405 613.554 337.13 631.49C333.38 651.933 322.58 670.414 306.611 683.718C290.642 697.021 270.514 704.304 249.73 704.3V704.3Z" fill="#535461"/>
</g>
<g id="manbike">
<path id="Vector_7" d="M118 564.104C118 567.964 117.57 571.104 117 571.104C116.43 571.104 116 567.974 116 564.104C116 560.234 116.54 562.104 117.07 562.104C117.6 562.104 118 560.254 118 564.104Z" fill="#FFD037"/>
<path id="Vector_8" d="M123.32 568.714C119.93 570.564 116.98 571.714 116.73 571.204C116.48 570.694 119.01 568.854 122.4 567.014C125.79 565.174 124.45 566.514 124.71 567.014C124.97 567.514 126.71 566.864 123.32 568.714Z" fill="#FFD037"/>
<path id="Vector_9" d="M384.66 557.89L341.953 515.746L328.607 529.27L371.314 571.414L384.66 557.89Z" fill="#F9A826"/>
<path id="Vector_10" opacity="0.1" d="M384.66 557.89L341.953 515.746L328.607 529.27L371.314 571.414L384.66 557.89Z" fill="black"/>
<path id="Vector_11" d="M352.14 495.577C352.14 495.577 376.93 482.497 386.51 474.077C392.277 469.031 398.478 464.503 405.04 460.547L436.14 441.617L501.14 436.617L504.14 447.617C504.14 447.617 509.14 463.617 459.14 477.617C409.14 491.617 384.14 513.617 384.14 513.617C384.14 513.617 352.14 524.577 352.14 495.577Z" fill="#DB8B8B"/>
<path id="Vector_12" opacity="0.1" d="M386.79 511.447C385.02 512.797 384.14 513.577 384.14 513.577C384.14 513.577 352.14 524.577 352.14 495.577C352.14 495.577 353.69 494.757 356.14 493.387C358.615 497.417 362.083 500.746 366.211 503.055C370.339 505.365 374.99 506.577 379.72 506.577H383.11L386.79 511.447Z" fill="black"/>
<path id="Vector_13" opacity="0.05" d="M503.2 453.137C500.42 459.027 490.83 468.707 459.14 477.577C418.53 488.947 394.41 505.577 386.79 511.447C385.02 512.797 384.14 513.577 384.14 513.577C384.14 513.577 352.14 524.577 352.14 495.577C352.14 495.577 353.69 494.757 356.14 493.387C363.57 489.317 379.3 480.387 386.48 474.037C392.246 468.989 398.447 464.462 405.01 460.507L436.11 441.577L447.69 440.687L501.11 436.577L504.11 447.577C504.11 447.577 504.81 449.727 503.2 453.137Z" fill="black"/>
<path id="Vector_14" d="M352.64 489.077L326.14 506.577L403.74 571.577C403.74 571.577 415.14 564.577 409.14 556.577C409.14 556.577 389.14 539.577 388.14 515.577L382.14 507.577H378.75C373.018 507.577 367.427 505.798 362.749 502.484C358.072 499.17 354.54 494.485 352.64 489.077V489.077Z" fill="#ABB1D1"/>
<path id="Vector_15" opacity="0.1" d="M503.2 453.137C487.2 445.407 448.14 444.577 448.14 444.577L447.72 440.687L501.14 436.577L504.14 447.577C504.14 447.577 504.81 449.727 503.2 453.137Z" fill="black"/>
<path id="Vector_16" d="M448.14 442.577C448.14 442.577 495.14 443.577 507.14 453.577L501.14 332.577H436.14L448.14 442.577Z" fill="#ABB1D1"/>
<path id="Vector_17" opacity="0.05" d="M448.14 442.077C448.14 442.077 495.14 443.077 507.14 453.077L501.14 332.077H436.14L448.14 442.077Z" fill="black"/>
<path id="Vector_18" d="M485.9 368.537C485.9 368.537 603.55 364.537 605.95 379.747C608.35 394.957 488.3 388.547 488.3 388.547C488.3 388.547 478.7 378.937 485.9 368.537Z" fill="#535461"/>
<path id="Vector_19" opacity="0.05" d="M485.9 368.537C485.9 368.537 603.55 364.537 605.95 379.747C608.35 394.957 488.3 388.547 488.3 388.547C488.3 388.547 478.7 378.937 485.9 368.537Z" fill="black"/>
<path id="Vector_20" d="M390.66 429.367H369.85V610.247H390.66V429.367Z" fill="#F9A826"/>
<path id="Vector_21" opacity="0.1" d="M390.66 429.357V443.287C383.74 444.187 376.66 444.757 369.85 444.977V429.357H390.66Z" fill="black"/>
<path id="Vector_22" d="M389.1 414.367C386.18 414.141 383.276 413.75 380.4 413.197C369.12 411.037 340.68 406.507 333.03 414.197C323.43 423.797 326.63 440.607 352.24 443.007C377.85 445.407 421.87 439.007 430.68 429.397C430.68 429.357 414.75 416.337 389.1 414.367Z" fill="#535461"/>
<path id="Vector_23" d="M385.06 478.987L603.56 410.957L610.76 427.767L386.66 504.597L385.06 478.987Z" fill="#F9A826"/>
<path id="Vector_24" d="M449.89 586.237L607.56 430.967L616.36 443.767L465.89 600.637L449.89 586.237Z" fill="#F9A826"/>
<path id="Vector_25" opacity="0.1" d="M651.24 533.437C646.244 534.729 641.372 536.459 636.68 538.607L627.12 511.897C632.137 509.71 637.304 507.882 642.58 506.427L651.24 533.437Z" fill="black"/>
<path id="Vector_26" d="M677.99 611.847L666.79 618.247L588.65 399.917L585.15 390.147L603.56 379.737L608.17 394.117L677.99 611.847Z" fill="#F9A826"/>
<path id="Vector_27" opacity="0.1" d="M608.17 394.117L588.65 399.917L585.15 390.147L603.56 379.737L608.17 394.117Z" fill="black"/>
<path id="Vector_28" d="M489.1 410.957L598.75 373.337C598.75 373.337 617.96 375.737 610.75 391.747L500.31 424.557C500.31 424.557 483.51 426.157 489.1 410.957Z" fill="#535461"/>
<path id="Vector_29" opacity="0.1" d="M365.45 619.447C365.449 625.581 364.974 631.706 364.03 637.767C354.43 637.077 344.51 636.077 334.79 635.077C336.949 623.186 336.681 610.981 334 599.197C343.47 597.197 353.14 595.287 362.58 593.557C364.493 602.054 365.455 610.737 365.45 619.447V619.447Z" fill="black"/>
<path id="Vector_30" opacity="0.1" d="M390.66 588.967V610.237H369.85V592.237C377.05 590.987 384.05 589.877 390.66 588.967Z" fill="black"/>
<path id="Vector_31" d="M256.2 619.077C256.2 619.077 424.28 575.077 437.88 591.867C451.48 608.657 465.89 631.077 423.51 639.077C381.13 647.077 253.03 625.467 253.03 625.467L256.2 619.077Z" fill="#F9A826"/>
<path id="Vector_32" opacity="0.1" d="M338.87 544.957L317.51 564.507C313.727 559.651 309.451 555.2 304.75 551.227L324.69 530.397C329.824 534.836 334.568 539.707 338.87 544.957V544.957Z" fill="black"/>
<path id="Vector_33" d="M250.6 610.247L376.25 478.987L380.26 509.397L257 622.247L250.6 610.247Z" fill="#F9A826"/>
<path id="Vector_34" opacity="0.1" d="M249 631.857C256.075 631.857 261.81 626.121 261.81 619.047C261.81 611.972 256.075 606.237 249 606.237C241.925 606.237 236.19 611.972 236.19 619.047C236.19 626.121 241.925 631.857 249 631.857Z" fill="black"/>
<path id="Vector_35" d="M247.39 631.857C254.465 631.857 260.2 626.121 260.2 619.047C260.2 611.972 254.465 606.237 247.39 606.237C240.315 606.237 234.58 611.972 234.58 619.047C234.58 626.121 240.315 631.857 247.39 631.857Z" fill="#535461"/>
<path id="Vector_36" opacity="0.1" d="M672.79 630.657C679.865 630.657 685.6 624.922 685.6 617.847C685.6 610.772 679.865 605.037 672.79 605.037C665.715 605.037 659.98 610.772 659.98 617.847C659.98 624.922 665.715 630.657 672.79 630.657Z" fill="black"/>
<path id="Vector_37" d="M673.59 632.257C680.665 632.257 686.4 626.521 686.4 619.447C686.4 612.372 680.665 606.637 673.59 606.637C666.515 606.637 660.78 612.372 660.78 619.447C660.78 626.521 666.515 632.257 673.59 632.257Z" fill="#535461"/>
<path id="Vector_38" opacity="0.1" d="M445.88 631.857C460.024 631.857 471.49 620.391 471.49 606.247C471.49 592.103 460.024 580.637 445.88 580.637C431.736 580.637 420.27 592.103 420.27 606.247C420.27 620.391 431.736 631.857 445.88 631.857Z" fill="black"/>
<path id="Vector_39" d="M447.49 631.857C461.634 631.857 473.1 620.391 473.1 606.247C473.1 592.103 461.634 580.637 447.49 580.637C433.346 580.637 421.88 592.103 421.88 606.247C421.88 620.391 433.346 631.857 447.49 631.857Z" fill="#535461"/>
<path id="Vector_40" d="M440.652 604.323L440.644 604.329C437.637 606.578 437.022 610.839 439.271 613.847L459.597 641.027C461.846 644.035 466.108 644.65 469.115 642.4L469.123 642.394C472.131 640.145 472.746 635.884 470.496 632.876L450.17 605.696C447.921 602.688 443.66 602.074 440.652 604.323Z" fill="#F9A826"/>
<path id="Vector_41" d="M563.14 250.577L560.76 280.687C560.486 284.501 560.536 288.331 560.91 292.137C561.22 295.507 560.91 301.407 557.61 310.407C553.373 321.904 551.183 334.054 551.14 346.307V380.577L528.14 376.577C528.14 376.577 529.14 328.577 525.14 320.577C521.14 312.577 528.14 241.577 528.14 241.577L563.14 250.577Z" fill="#DB8B8B"/>
<path id="Vector_42" opacity="0.05" d="M561.96 265.497L560.76 280.687C560.49 284.498 560.543 288.325 560.92 292.127C561.23 295.497 560.92 301.397 557.62 310.407C553.383 321.904 551.193 334.054 551.15 346.307V380.577L528.15 376.577C528.15 376.577 529.15 328.577 525.15 320.577C522.32 314.907 525 277.637 526.81 256.367C527.56 247.617 528.15 241.577 528.15 241.577L563.15 250.577L561.96 265.497Z" fill="black"/>
<path id="Vector_43" d="M449.16 480.577L440.51 529.777C439.419 536.346 437.746 542.804 435.51 549.077C430.44 562.937 433.68 582.367 436.14 592.967C437.23 597.647 438.14 600.607 438.14 600.607L412.14 614.607L404.14 608.607V604.607L403.14 515.607C397.14 501.607 399.14 480.607 403.14 472.607C404.277 469.978 405.077 467.216 405.52 464.387C407.52 453.667 408.14 438.607 408.14 438.607C408.14 438.607 424.14 411.607 443.14 429.607C450.14 436.237 452.8 444.907 453.36 453.207C454.34 467.417 449.16 480.577 449.16 480.577Z" fill="#DB8B8B"/>
<path id="Vector_44" opacity="0.1" d="M453.36 453.177C439.49 461.417 415.36 463.747 405.52 464.357C407.52 453.637 408.14 438.577 408.14 438.577C408.14 438.577 424.14 411.577 443.14 429.577C450.14 436.207 452.8 444.877 453.36 453.177Z" fill="black"/>
<path id="Vector_45" d="M487.14 428.577C476.506 434.24 466.457 440.939 457.14 448.577C441.14 461.577 401.14 462.577 401.14 462.577V447.577C402.14 429.577 385.14 409.577 362.14 353.577C347.45 317.817 351.52 297.577 356.38 287.577C359.14 281.927 362.14 279.577 362.14 279.577L487.14 303.577L491.61 316.977L501.14 345.577C501.14 345.577 466.14 347.577 460.14 350.577C454.14 353.577 458.14 380.577 458.14 380.577C452.14 408.577 487.14 428.577 487.14 428.577Z" fill="#ABB1D1"/>
<path id="Vector_46" opacity="0.1" d="M563.14 250.577L561.96 265.497C544.56 270.497 532.14 254.577 532.14 254.577C530.325 255.063 528.542 255.661 526.8 256.367C527.55 247.617 528.14 241.577 528.14 241.577L563.14 250.577Z" fill="black"/>
<path id="Vector_47" opacity="0.1" d="M491.61 316.977C491.14 321.647 491.14 324.577 491.14 324.577C491.14 324.577 468.14 343.577 429.14 314.577C390.14 285.577 355.14 293.577 355.14 293.577C355.14 293.577 355.55 291.257 356.38 287.577C359.14 281.927 362.14 279.577 362.14 279.577L487.14 303.577L491.61 316.977Z" fill="black"/>
<path id="Vector_48" d="M576.62 211.527C574.01 231.877 573.14 257.527 573.14 257.527C550.14 275.527 532.14 252.527 532.14 252.527C510.42 258.357 500.21 277.367 495.4 293.957C492.824 302.93 491.392 312.194 491.14 321.527C491.14 321.527 485.06 326.527 473.86 327.527C463.27 328.417 448.09 325.657 429.14 311.527C390.14 282.527 355.14 290.527 355.14 290.527C355.14 290.527 362.14 250.527 378.14 238.527C394.14 226.527 406.14 211.527 426.14 165.527C446.14 119.527 487.14 130.527 487.14 130.527C487.14 130.527 489.14 121.527 526.14 130.527C535.152 132.889 543.494 137.308 550.51 143.437C570.3 160.077 579.9 185.887 576.62 211.527Z" fill="white"/>
<path id="Vector_49" d="M539.51 173.077C539.46 174.407 539.35 175.887 539.17 177.537C537.17 195.537 535.17 193.537 513.17 197.537C499.49 200.027 492.38 188.597 488.96 179.597C487.722 176.336 486.788 172.969 486.17 169.537L534.17 161.537C534.17 161.537 539.92 159.927 539.51 173.077Z" fill="#DB8B8B"/>
<path id="Vector_50" opacity="0.05" d="M495.4 314.007C492.824 322.98 491.392 332.244 491.14 341.577C491.14 341.577 485.06 346.577 473.86 347.577C473.544 346.94 473.303 346.269 473.14 345.577C471.14 336.577 456.14 320.577 456.14 320.577C446.14 311.577 444.14 295.577 444.14 295.577L427.64 247.077L422.14 242.577C422.14 242.577 445.14 224.577 465.14 239.577C485.14 254.577 479.14 286.577 479.14 286.577L483.14 297.577C487.29 301.077 491.51 307.247 495.4 314.007Z" fill="black"/>
<path id="Vector_51" d="M425.14 241.577L447.14 294.577C447.14 294.577 449.14 310.577 459.14 319.577C459.14 319.577 474.14 335.577 476.14 344.577C478.14 353.577 506.14 377.577 506.14 377.577C506.14 377.577 532.14 401.577 534.14 410.577C534.14 410.577 558.14 417.577 555.14 431.577C555.14 431.577 573.14 413.577 555.14 396.577C537.14 379.577 513.14 344.577 513.14 344.577C513.14 344.577 499.14 307.577 486.14 296.577L482.14 285.577C482.14 285.577 488.14 253.577 468.14 238.577C448.14 223.577 425.14 241.577 425.14 241.577Z" fill="#DB8B8B"/>
<path id="Vector_52" opacity="0.1" d="M438.14 620.577L412.14 634.577L404.14 628.577V624.577C413.124 623.939 421.853 621.305 429.69 616.867C432.09 615.507 434.35 614.167 436.16 612.987C437.21 617.617 438.14 620.577 438.14 620.577Z" fill="black"/>
<path id="Vector_53" opacity="0.1" d="M468.14 199.577L482.14 254.577C482.14 254.577 439.14 261.577 430.14 254.577C421.14 247.577 404.14 245.577 404.14 245.577C404.14 245.577 422.14 193.577 432.14 187.577C442.14 181.577 468.14 199.577 468.14 199.577Z" fill="black"/>
<path id="Vector_54" d="M468.14 197.577L482.14 252.577C482.14 252.577 439.14 259.577 430.14 252.577C421.14 245.577 404.14 243.577 404.14 243.577C404.14 243.577 422.14 191.577 432.14 185.577C442.14 179.577 468.14 197.577 468.14 197.577Z" fill="white"/>
<path id="Vector_55" opacity="0.1" d="M539.51 172.077C536.709 175.943 533.147 179.195 529.043 181.634C524.938 184.072 520.378 185.645 515.643 186.256C510.908 186.866 506.099 186.502 501.51 185.185C496.921 183.868 492.65 181.626 488.96 178.597C487.722 175.336 486.788 171.969 486.17 168.537L534.17 160.537C534.17 160.537 539.92 158.927 539.51 172.077Z" fill="black"/>
<path id="Vector_56" d="M546.14 150.577C546.14 159.859 542.453 168.762 535.889 175.325C529.325 181.889 520.423 185.577 511.14 185.577C501.857 185.577 492.955 181.889 486.391 175.325C479.828 168.762 476.14 159.859 476.14 150.577C476.14 149.997 476.14 149.417 476.14 148.837C476.371 139.554 480.28 130.743 487.006 124.343C493.733 117.942 502.727 114.476 512.01 114.707C521.293 114.937 530.103 118.846 536.504 125.573C542.905 132.3 546.371 141.294 546.14 150.577V150.577Z" fill="#DB8B8B"/>
<path id="Vector_57" opacity="0.1" d="M546.14 150.577C546.143 153.802 545.699 157.013 544.82 160.117C542.115 160.706 539.293 160.448 536.74 159.377C533 157.907 529.79 155.377 526.2 153.557C516.09 148.437 504.06 149.447 492.86 151.137C487.3 151.977 480.99 152.757 476.62 149.217C476.47 149.098 476.326 148.971 476.19 148.837C476.421 139.554 480.33 130.743 487.056 124.343C493.783 117.942 502.777 114.476 512.06 114.707C521.343 114.937 530.153 118.846 536.554 125.573C542.955 132.3 546.421 141.294 546.19 150.577H546.14Z" fill="black"/>
<path id="Vector_58" d="M450.82 128.927C452.95 135.607 463.18 135.817 468.43 140.737C471.16 143.297 472.43 147.077 475.43 149.357C479.6 152.537 485.62 151.837 490.93 151.077C501.62 149.557 513.1 148.647 522.74 153.257C526.16 154.887 529.23 157.167 532.8 158.497C536.37 159.827 540.8 159.987 543.7 157.627C546.02 155.737 546.87 152.627 548.97 150.547C550.6 148.907 552.87 147.987 554.73 146.547C558.81 143.467 560.57 138.447 561.73 133.647C564.13 123.767 564.82 113.117 560.73 103.747C556.64 94.3767 546.8 86.7467 536.06 87.2367C532.77 87.3867 529.56 88.2367 526.28 88.5967C517.73 89.4667 509.28 86.5967 500.7 86.1067C498.211 85.8039 495.687 86.1483 493.37 87.1067C491.623 88.0775 490.117 89.4273 488.96 91.0567C485.032 96.2021 482.342 102.184 481.1 108.537C480.1 113.327 480.05 117.667 474.18 118.407C467.51 119.287 446.31 114.797 450.82 128.927Z" fill="#472727"/>
<path id="Vector_59" opacity="0.05" d="M382.64 258.077C382.64 258.077 408.64 265.077 416.64 283.077C424.64 301.077 446.28 304.367 446.28 304.367" fill="black"/>
<path id="Vector_60" opacity="0.1" d="M480.64 654.077H420.64V673.077H480.64V654.077Z" fill="black"/>
<path id="Vector_61" d="M429.65 618.817C435.02 615.817 439.73 612.817 440.14 611.577C440.14 611.577 453.69 625.877 465.76 630.317C469.819 631.816 473.704 633.747 477.35 636.077C482.13 639.077 488.95 642.607 495.14 642.607C495.14 642.607 509.14 654.607 482.14 656.607C455.14 658.607 392.14 651.607 392.14 651.607L396.14 626.607C407.827 627.292 419.464 624.587 429.65 618.817Z" fill="#ABB1D1"/>
</g>
</g>
<defs>
<clipPath id="clip0">
<rect width="1057.7" height="784.98" fill="white"/>
</clipPath>
</defs>
</svg>
